<?xml version="1.0" encoding="UTF-8" standalone="no"?>
<!DOCTYPE svg PUBLIC "-//W3C//DTD SVG 1.1//EN" "http://www.w3.org/Graphics/SVG/1.1/DTD/svg11.dtd">
<svg width="100%" height="100%" viewBox="0 0 555 222" version="1.1" xmlns="http://www.w3.org/2000/svg" xmlns:xlink="http://www.w3.org/1999/xlink" xml:space="preserve" style="fill-rule:evenodd;clip-rule:evenodd;stroke-linejoin:round;stroke-miterlimit:1.41421;">
    <g transform="matrix(1,0,0,1,-3491.44,-1042.15)">
        <g transform="matrix(4.16667,0,0,4.16667,0,0)">
            <path d="M867.564,276.707L867.632,276.64L867.564,276.707ZM853.323,274.339C852.871,274.993 852.409,275.642 851.934,276.284C851.46,276.927 850.964,277.553 850.445,278.162C849.43,279.403 848.387,280.598 847.316,281.749C846.246,282.897 845.169,284.06 844.085,285.233C843.814,285.526 843.545,285.813 843.273,286.095C843.002,286.378 842.744,286.677 842.497,286.991C842.247,287.308 842.001,287.612 841.752,287.905C841.502,288.198 841.255,288.503 841.007,288.819C840.895,288.999 840.781,289.163 840.669,289.31C840.555,289.456 840.444,289.62 840.33,289.8C840.106,290.093 839.902,290.421 839.722,290.78C839.608,290.962 839.512,291.136 839.434,291.306C839.356,291.474 839.27,291.649 839.18,291.829C839.113,292.009 839.045,292.19 838.977,292.37C838.91,292.55 838.853,292.731 838.809,292.913C838.695,293.251 838.617,293.622 838.573,294.028C838.526,294.411 838.526,294.784 838.573,295.145C838.638,295.46 838.762,295.788 838.944,296.126C839.123,296.397 839.372,296.622 839.688,296.802C839.981,296.938 840.308,297.005 840.669,297.005C840.984,297.005 841.334,296.948 841.718,296.837C842.056,296.745 842.382,296.589 842.699,296.362C842.857,296.249 843.007,296.144 843.156,296.042C843.301,295.94 843.444,295.833 843.579,295.72C843.872,295.472 844.136,295.212 844.373,294.942C844.611,294.671 844.852,294.378 845.101,294.061L845.406,293.589L845.574,293.386L845.642,293.251L845.709,293.114C845.934,292.776 846.127,292.45 846.285,292.134C846.397,291.954 846.498,291.79 846.589,291.644C846.68,291.497 846.77,291.333 846.859,291.153L847.401,290.104C847.583,289.767 847.744,289.423 847.891,289.071C848.039,288.724 848.201,288.368 848.382,288.007C848.992,286.563 849.566,285.108 850.107,283.644C850.401,282.897 850.676,282.153 850.936,281.409C851.195,280.665 851.46,279.921 851.732,279.177L853.323,274.711L853.627,273.865L853.323,274.339ZM860.561,262.87L860.527,262.87L860.494,262.904L860.46,262.904L860.357,262.972C860.267,263.018 860.2,263.062 860.156,263.107L859.852,263.446L859.681,263.683L859.546,263.919L859.309,264.394C859.218,264.573 859.135,264.743 859.055,264.9C858.977,265.059 858.904,265.228 858.835,265.407L858.396,266.49L857.958,267.573L857.55,268.655L856.738,270.888C856.218,272.377 855.708,273.872 855.199,275.371C854.691,276.871 854.178,278.364 853.66,279.853L852.882,281.985C853.603,280.722 854.324,279.487 855.046,278.28C855.768,277.074 856.523,275.861 857.314,274.644C857.698,274.013 858.092,273.392 858.498,272.782C858.904,272.174 859.32,271.565 859.751,270.956C860.178,270.347 860.606,269.749 861.035,269.163C861.463,268.577 861.902,267.991 862.354,267.403L863.064,266.558L863.402,266.118L863.776,265.712L864.487,264.866L865.263,264.055C865.511,263.784 865.766,263.524 866.026,263.276C866.284,263.028 866.56,262.78 866.853,262.532L867.767,261.821C867.925,261.709 868.088,261.607 868.257,261.517C868.426,261.428 868.602,261.337 868.782,261.247L869.357,261.044C869.469,260.999 869.571,260.971 869.662,260.959C869.752,260.948 869.853,260.931 869.967,260.908L870.287,260.908C870.388,260.908 870.497,260.92 870.609,260.942C870.878,260.987 871.117,261.066 871.319,261.179C871.455,261.269 871.556,261.349 871.624,261.416C871.691,261.462 871.77,261.552 871.862,261.686C871.95,261.8 872.012,261.912 872.046,262.024C872.08,262.138 872.119,262.251 872.165,262.363C872.21,262.477 872.238,262.583 872.251,262.685C872.261,262.786 872.277,262.894 872.3,263.006C872.3,263.119 872.305,263.22 872.318,263.311C872.329,263.401 872.334,263.502 872.334,263.614L872.232,264.799L872.131,265.374C872.085,265.532 872.041,265.724 871.997,265.949C871.906,266.333 871.805,266.699 871.691,267.049C871.579,267.398 871.465,267.754 871.353,268.114C871.241,268.476 871.117,268.825 870.981,269.163C870.845,269.501 870.699,269.852 870.541,270.212L869.695,272.241C869.537,272.58 869.385,272.918 869.238,273.257C869.092,273.595 868.928,273.922 868.748,274.237C868.589,274.575 868.438,274.914 868.291,275.253C868.145,275.591 867.982,275.918 867.8,276.233L867.632,276.64C868.33,275.421 869.035,274.232 869.747,273.07C870.458,271.909 871.207,270.753 871.997,269.603C872.606,268.724 873.191,267.899 873.756,267.134C874.047,266.728 874.348,266.321 874.652,265.915C874.957,265.509 875.266,265.115 875.583,264.731C875.897,264.349 876.231,263.97 876.58,263.598C876.93,263.226 877.295,262.87 877.68,262.532C877.859,262.353 878.045,262.183 878.238,262.024C878.43,261.867 878.637,261.709 878.863,261.552C878.977,261.462 879.088,261.382 879.201,261.314C879.314,261.247 879.426,261.179 879.54,261.111C879.743,260.999 879.991,260.886 880.285,260.772L880.69,260.671C880.736,260.671 880.776,260.666 880.809,260.655C880.843,260.644 880.881,260.638 880.928,260.638L881.603,260.638C881.784,260.683 881.943,260.728 882.079,260.772C882.257,260.841 882.405,260.92 882.517,261.01C882.585,261.077 882.652,261.14 882.72,261.196C882.787,261.253 882.843,261.314 882.888,261.382C883.092,261.653 883.228,261.946 883.295,262.262C883.339,262.397 883.374,262.538 883.396,262.685C883.419,262.831 883.441,262.972 883.464,263.107C883.487,263.243 883.498,263.384 883.498,263.53L883.498,263.953C883.475,264.224 883.454,264.489 883.43,264.748C883.409,265.008 883.374,265.261 883.329,265.509C883.238,266.028 883.131,266.536 883.007,267.032C882.882,267.528 882.742,268.024 882.585,268.52C882.426,269.017 882.268,269.501 882.112,269.976C881.954,270.448 881.784,270.923 881.603,271.395C881.266,272.366 880.91,273.313 880.539,274.237C880.166,275.163 879.789,276.099 879.405,277.046L877.002,282.56L874.635,288.04C874.521,288.267 874.42,288.491 874.33,288.718C874.241,288.942 874.15,289.181 874.059,289.427L873.484,290.78L872.977,292.167L872.503,293.52L872.064,294.874C872.041,294.987 872.017,295.095 871.997,295.196C871.973,295.298 871.962,295.403 871.962,295.517C871.916,295.743 871.916,295.911 871.962,296.024L872.03,296.159L872.199,296.261L872.435,296.261C872.526,296.261 872.627,296.228 872.741,296.159C872.853,296.114 872.955,296.063 873.045,296.007C873.135,295.952 873.237,295.89 873.349,295.821L873.891,295.349C874.07,295.19 874.241,295.015 874.398,294.823C874.555,294.632 874.713,294.444 874.872,294.265C875.03,294.061 875.181,293.86 875.329,293.657C875.474,293.454 875.616,293.251 875.752,293.048C876.044,292.642 876.326,292.229 876.598,291.811C876.867,291.395 877.127,290.972 877.376,290.544C877.623,290.116 877.872,289.686 878.119,289.259C878.367,288.829 878.616,288.39 878.863,287.938L880.285,285.3L881.603,282.628C881.717,282.403 881.824,282.177 881.925,281.95C882.027,281.726 882.132,281.501 882.247,281.274C882.359,281.05 882.467,280.823 882.569,280.598C882.67,280.373 882.776,280.147 882.888,279.921C882.979,279.763 883.092,279.718 883.228,279.786C883.385,279.876 883.43,279.989 883.363,280.124L882.044,282.831L880.656,285.503C880.431,285.954 880.199,286.399 879.963,286.839C879.727,287.278 879.484,287.726 879.237,288.177C878.987,288.628 878.739,289.061 878.492,289.478C878.242,289.895 877.996,290.329 877.747,290.78C877.477,291.21 877.21,291.632 876.953,292.05C876.694,292.466 876.416,292.89 876.123,293.317L875.21,294.536C875.051,294.739 874.893,294.936 874.737,295.128C874.579,295.319 874.41,295.505 874.228,295.686L874.161,295.755C874.386,295.642 874.606,295.534 874.82,295.433C875.035,295.331 875.266,295.247 875.513,295.179C875.717,295.089 875.925,295.015 876.141,294.958C876.354,294.901 876.574,294.851 876.8,294.808C877.026,294.761 877.244,294.728 877.459,294.704C877.674,294.683 877.893,294.659 878.119,294.638C878.57,294.593 879.01,294.575 879.439,294.587C879.867,294.599 880.306,294.626 880.757,294.671C881.209,294.716 881.648,294.767 882.079,294.823C882.506,294.88 882.945,294.952 883.396,295.044C883.824,295.155 884.248,295.263 884.666,295.364C885.083,295.466 885.506,295.573 885.934,295.686C886.362,295.798 886.785,295.923 887.204,296.058C887.621,296.194 888.044,296.329 888.47,296.464C889.305,296.735 890.128,297.017 890.941,297.31C891.752,297.603 892.564,297.907 893.377,298.224C894.189,298.517 895.001,298.81 895.813,299.103C896.626,299.395 897.448,299.679 898.282,299.948C898.486,300.017 898.688,300.085 898.891,300.151C899.093,300.22 899.296,300.276 899.501,300.321C899.704,300.388 899.906,300.456 900.109,300.524C900.313,300.591 900.516,300.647 900.718,300.692L901.969,301.032L903.222,301.335C903.424,301.38 903.627,301.421 903.83,301.454C904.034,301.487 904.248,301.526 904.473,301.573C904.878,301.685 905.296,301.753 905.724,301.776C906.583,301.888 907.416,301.956 908.228,301.979C909.085,301.979 909.938,301.962 910.784,301.929C911.628,301.894 912.478,301.819 913.335,301.708C914.17,301.618 915.017,301.481 915.873,301.302C916.28,301.188 916.685,301.081 917.092,300.981C917.498,300.88 917.905,300.749 918.31,300.591C918.694,300.456 919.076,300.288 919.459,300.085C919.866,299.903 920.227,299.7 920.544,299.476C920.723,299.362 920.892,299.243 921.05,299.12C921.208,298.995 921.353,298.854 921.491,298.696C921.626,298.561 921.748,298.403 921.862,298.224C921.974,298.065 922.064,297.895 922.132,297.716C922.178,297.603 922.201,297.435 922.201,297.208C922.201,297.095 922.155,296.927 922.064,296.702C922.02,296.589 921.906,296.442 921.727,296.261L921.253,295.923C921.162,295.878 921.073,295.839 920.982,295.804C920.892,295.77 920.791,295.731 920.678,295.686C920.588,295.642 920.498,295.606 920.406,295.585C920.316,295.561 920.214,295.528 920.103,295.483C919.651,295.37 919.234,295.313 918.852,295.313C918.626,295.292 918.412,295.28 918.209,295.28L917.564,295.28C917.363,295.302 917.155,295.313 916.939,295.313C916.724,295.313 916.506,295.337 916.28,295.382C915.852,295.427 915.428,295.478 915.011,295.534C914.593,295.589 914.17,295.651 913.742,295.72C913.314,295.81 912.896,295.899 912.491,295.991C912.084,296.081 911.669,296.183 911.238,296.296L908.669,296.837C908.241,296.948 907.81,297.04 907.382,297.106C906.954,297.175 906.513,297.243 906.063,297.31C905.184,297.423 904.305,297.489 903.424,297.513C902.973,297.513 902.521,297.501 902.071,297.479C901.619,297.456 901.169,297.423 900.718,297.378C900.266,297.333 899.827,297.27 899.399,297.192C898.97,297.112 898.531,297.017 898.079,296.903C897.199,296.702 896.366,296.431 895.576,296.093C894.742,295.755 893.94,295.37 893.174,294.942L893.208,294.874C893.636,294.987 894.059,295.089 894.477,295.179C894.893,295.269 895.316,295.358 895.746,295.45C896.579,295.63 897.425,295.765 898.282,295.854C899.138,295.968 899.984,296.03 900.819,296.042C901.653,296.052 902.501,296.036 903.357,295.991C904.213,295.946 905.059,295.866 905.895,295.755C906.728,295.642 907.574,295.517 908.431,295.382C908.859,295.313 909.281,295.247 909.699,295.179C910.117,295.11 910.55,295.054 911.002,295.009L913.607,294.704C914.487,294.638 915.367,294.604 916.247,294.604C916.674,294.581 917.113,294.581 917.564,294.604C917.813,294.604 918.045,294.614 918.257,294.638C918.473,294.659 918.694,294.694 918.919,294.739C919.145,294.761 919.363,294.796 919.579,294.841C919.794,294.886 920.011,294.931 920.238,294.976C920.463,295.02 920.678,295.083 920.881,295.161C921.084,295.241 921.296,295.337 921.523,295.45C921.748,295.561 921.941,295.696 922.098,295.854C922.189,295.946 922.274,296.036 922.352,296.126C922.431,296.216 922.503,296.317 922.573,296.431C922.685,296.61 922.763,296.858 922.809,297.175C922.833,297.399 922.809,297.649 922.742,297.919L922.438,298.597L921.998,299.171C921.681,299.509 921.343,299.813 920.982,300.085C920.598,300.354 920.214,300.597 919.833,300.811C919.449,301.026 919.044,301.224 918.616,301.403C918.209,301.583 917.796,301.741 917.378,301.878C916.96,302.013 916.54,302.136 916.112,302.249C915.66,302.362 915.224,302.47 914.809,302.571C914.391,302.673 913.958,302.757 913.506,302.825C912.627,302.981 911.747,303.095 910.867,303.163C909.988,303.229 909.107,303.274 908.228,303.298C907.777,303.298 907.333,303.28 906.892,303.247C906.451,303.214 906.006,303.173 905.555,303.13C905.103,303.083 904.665,303.022 904.237,302.942C903.808,302.864 903.368,302.778 902.917,302.688L901.631,302.384L900.345,302.013C900.142,301.968 899.934,301.911 899.72,301.843C899.506,301.776 899.296,301.708 899.093,301.64L897.842,301.235C897.007,300.94 896.184,300.642 895.373,300.337C894.56,300.034 893.749,299.724 892.938,299.407L888.099,297.513C887.694,297.354 887.287,297.208 886.881,297.073C886.476,296.938 886.069,296.802 885.665,296.667C885.234,296.509 884.819,296.374 884.412,296.261C884.006,296.147 883.599,296.036 883.194,295.923C882.405,295.696 881.57,295.517 880.69,295.382C879.833,295.247 878.977,295.179 878.119,295.179C877.916,295.179 877.708,295.185 877.494,295.196C877.28,295.206 877.07,295.224 876.867,295.247C876.642,295.292 876.428,295.331 876.224,295.364C876.021,295.397 875.819,295.438 875.616,295.483C875.006,295.618 874.398,295.843 873.79,296.159L873.688,296.261C873.574,296.351 873.468,296.436 873.367,296.515C873.265,296.593 873.157,296.667 873.045,296.735C872.91,296.847 872.773,296.915 872.638,296.938C872.503,297.005 872.334,297.04 872.131,297.04C871.928,297.04 871.748,296.993 871.589,296.903C871.477,296.858 871.386,296.802 871.319,296.735C871.252,296.667 871.195,296.589 871.151,296.499C871.037,296.386 870.959,296.228 870.915,296.024C870.867,295.956 870.845,295.884 870.845,295.804C870.845,295.726 870.834,295.651 870.813,295.585C870.79,295.427 870.771,295.28 870.761,295.145C870.751,295.009 870.744,294.862 870.744,294.704L870.813,293.894C870.834,293.757 870.852,293.628 870.863,293.505C870.873,293.38 870.902,293.251 870.948,293.114C871.016,292.642 871.138,292.145 871.319,291.626C871.386,291.378 871.46,291.136 871.54,290.899C871.618,290.663 871.704,290.421 871.794,290.171C871.882,289.923 871.973,289.681 872.064,289.444C872.154,289.208 872.244,288.966 872.334,288.718L872.876,287.329C873.258,286.382 873.648,285.452 874.044,284.538C874.438,283.626 874.838,282.708 875.244,281.782L877.68,276.302C877.792,276.054 877.893,275.822 877.984,275.608C878.074,275.394 878.165,275.163 878.253,274.914L878.863,273.561C879.044,273.11 879.231,272.647 879.421,272.174C879.613,271.7 879.799,271.238 879.981,270.786C880.16,270.336 880.335,269.88 880.503,269.417C880.674,268.954 880.848,268.486 881.03,268.013L881.468,266.626C881.536,266.378 881.603,266.142 881.671,265.915C881.739,265.69 881.795,265.453 881.84,265.204C881.886,264.979 881.93,264.754 881.977,264.528C882.021,264.303 882.066,264.065 882.112,263.817C882.132,263.705 882.151,263.598 882.162,263.497C882.174,263.395 882.18,263.288 882.18,263.175L882.18,262.853C882.18,262.752 882.167,262.645 882.145,262.532C882.099,262.284 882.044,262.115 881.977,262.024C881.909,261.867 881.806,261.754 881.671,261.686L881.434,261.585C881.388,261.585 881.362,261.579 881.349,261.567C881.338,261.558 881.323,261.552 881.299,261.552C881.232,261.552 881.175,261.54 881.131,261.517L880.826,261.517L880.521,261.585C880.295,261.607 880.083,261.675 879.878,261.788C879.63,261.901 879.416,262.014 879.237,262.126C879.034,262.239 878.83,262.368 878.627,262.515C878.424,262.662 878.232,262.814 878.051,262.972C877.872,263.13 877.696,263.294 877.527,263.462C877.357,263.632 877.184,263.807 877.002,263.987C876.823,264.167 876.652,264.349 876.497,264.528C876.338,264.709 876.169,264.89 875.988,265.069C875.671,265.453 875.357,265.843 875.041,266.237C874.724,266.632 874.42,267.02 874.127,267.403C873.81,267.81 873.518,268.216 873.248,268.622C872.977,269.028 872.695,269.445 872.402,269.874C871.862,270.708 871.324,271.548 870.795,272.394C870.265,273.239 869.741,274.091 869.222,274.948C868.704,275.806 868.201,276.668 867.717,277.536C867.231,278.405 866.741,279.278 866.244,280.157C865.522,281.444 864.813,282.735 864.113,284.03C863.415,285.329 862.714,286.632 862.016,287.938C862.016,287.962 862.01,287.979 861.999,287.989C861.987,288.001 861.982,288.019 861.982,288.04L861.136,290.003L860.731,290.983L860.392,291.966C860.324,292.212 860.189,292.394 859.987,292.507C859.784,292.618 859.556,292.642 859.309,292.573C859.084,292.507 858.915,292.37 858.803,292.167C858.689,291.966 858.656,291.751 858.701,291.524C858.747,291.321 858.796,291.13 858.853,290.95C858.909,290.77 858.97,290.589 859.04,290.409C859.084,290.228 859.141,290.048 859.208,289.868C859.276,289.686 859.343,289.507 859.411,289.327C859.546,288.966 859.688,288.616 859.834,288.276C859.981,287.938 860.122,287.601 860.257,287.263C860.573,286.585 860.887,285.909 861.204,285.233C861.52,284.556 861.835,283.892 862.151,283.237C862.805,281.905 863.464,280.598 864.131,279.311C864.795,278.026 865.455,276.719 866.109,275.388L867.089,273.46C867.248,273.121 867.406,272.788 867.564,272.462C867.722,272.135 867.88,271.813 868.037,271.497C868.195,271.159 868.348,270.827 868.494,270.499C868.641,270.173 868.782,269.84 868.919,269.501C869.074,269.186 869.222,268.858 869.357,268.52C869.492,268.183 869.627,267.844 869.763,267.505C869.898,267.189 870.027,266.862 870.152,266.524C870.276,266.186 870.395,265.848 870.507,265.509C870.642,265.149 870.744,264.821 870.813,264.528C870.857,264.349 870.896,264.179 870.93,264.02C870.964,263.863 871.002,263.705 871.049,263.548C871.07,263.366 871.088,263.204 871.099,263.057C871.111,262.91 871.104,262.758 871.083,262.601L870.981,262.262L870.779,261.991C870.598,261.855 870.338,261.788 870.001,261.788L869.796,261.788C869.729,261.811 869.651,261.821 869.56,261.821L869.085,261.957C868.906,262.024 868.742,262.093 868.595,262.16C868.449,262.228 868.296,262.317 868.138,262.431C867.982,262.52 867.835,262.616 867.699,262.718C867.564,262.819 867.417,262.927 867.26,263.04C867.126,263.153 866.989,263.265 866.853,263.378C866.718,263.491 866.583,263.603 866.448,263.716L865.67,264.46C865.151,264.979 864.66,265.515 864.199,266.067C863.736,266.62 863.28,267.189 862.829,267.776C861.949,268.927 861.103,270.11 860.291,271.328L859.073,273.155C858.869,273.472 858.666,273.776 858.463,274.068C858.261,274.362 858.069,274.667 857.888,274.981C857.098,276.222 856.327,277.469 855.571,278.72C854.815,279.972 854.076,281.24 853.356,282.526L851.223,286.349L850.92,286.89L850.074,288.784C849.892,289.145 849.718,289.507 849.549,289.868C849.381,290.228 849.194,290.589 848.992,290.95L848.416,291.999C848.303,292.179 848.196,292.354 848.094,292.522C847.993,292.692 847.886,292.866 847.773,293.048L847.03,294.061L846.927,294.163L846.826,294.3L846.623,294.536L846.217,295.009C845.631,295.618 844.988,296.159 844.29,296.634C844.107,296.745 843.927,296.858 843.748,296.972C843.566,297.085 843.376,297.186 843.171,297.276C842.992,297.366 842.8,297.446 842.598,297.513C842.395,297.581 842.18,297.638 841.955,297.683C841.728,297.728 841.508,297.767 841.295,297.8C841.08,297.835 840.861,297.841 840.635,297.817C840.521,297.794 840.415,297.778 840.314,297.767C840.212,297.755 840.106,297.728 839.992,297.683C839.722,297.614 839.507,297.524 839.349,297.411C839.146,297.298 838.965,297.157 838.809,296.989C838.651,296.819 838.515,296.644 838.402,296.464C838.175,296.103 838.041,295.686 837.997,295.212C837.929,294.808 837.929,294.39 837.997,293.96C838.018,293.601 838.109,293.194 838.267,292.743C838.313,292.561 838.373,292.376 838.454,292.185C838.531,291.993 838.617,291.806 838.708,291.626C838.864,291.288 839.056,290.927 839.281,290.544C839.395,290.364 839.502,290.188 839.603,290.02C839.705,289.851 839.811,289.686 839.924,289.528L840.635,288.548C841.604,287.308 842.642,286.101 843.748,284.929C843.996,284.612 844.255,284.313 844.526,284.03C844.796,283.749 845.066,283.462 845.338,283.169L846.927,281.409C848.01,280.237 849.059,279.054 850.074,277.856C850.592,277.249 851.088,276.628 851.563,275.997C852.036,275.366 852.498,274.724 852.949,274.068C853.174,273.753 853.388,273.426 853.592,273.087C853.795,272.749 853.987,272.411 854.169,272.072C854.257,271.915 854.335,271.763 854.405,271.616C854.472,271.47 854.54,271.317 854.607,271.159L854.979,270.212L855.892,268.013C856.209,267.224 856.546,266.49 856.907,265.813L857.516,264.731C857.628,264.551 857.748,264.382 857.872,264.224C857.996,264.065 858.126,263.897 858.261,263.716C858.554,263.356 858.869,263.052 859.208,262.803C859.411,262.645 859.614,262.52 859.816,262.431C859.885,262.409 859.948,262.392 860.002,262.38C860.059,262.368 860.122,262.363 860.189,262.363L860.527,262.363C860.549,262.363 860.561,262.374 860.561,262.397L860.595,262.397C860.752,262.442 860.809,262.544 860.763,262.701C860.718,262.814 860.651,262.87 860.561,262.87" style="fill:#DFAC9E;fill-rule:nonzero;"/>
        </g>
        <g transform="matrix(4.16667,0,0,4.16667,0,0)">
            <path d="M891.347,282.222C891.618,281.433 891.821,280.587 891.955,279.685C891.979,279.572 891.994,279.464 892.006,279.364C892.018,279.261 892.024,279.156 892.024,279.041C892.045,278.929 892.063,278.822 892.075,278.72C892.085,278.618 892.091,278.512 892.091,278.4L892.091,277.74C892.091,277.525 892.08,277.306 892.057,277.079C892.035,277.034 892.024,276.967 892.024,276.876L891.854,277.046C891.741,277.136 891.635,277.238 891.534,277.35C891.432,277.464 891.335,277.576 891.245,277.689C890.862,278.162 890.557,278.703 890.332,279.312C890.197,279.583 890.095,279.876 890.028,280.193C889.983,280.351 889.954,280.508 889.944,280.665C889.932,280.824 889.914,280.982 889.893,281.139C889.869,281.298 889.864,281.451 889.875,281.597C889.887,281.743 889.904,281.896 889.926,282.052C889.994,282.392 890.095,282.673 890.231,282.898C890.41,283.169 890.637,283.349 890.907,283.441C890.907,283.462 890.918,283.474 890.942,283.474C891.008,283.271 891.082,283.068 891.16,282.865C891.24,282.661 891.301,282.449 891.347,282.222M891.178,274.813L890.975,274.611C890.93,274.587 890.891,274.566 890.856,274.542C890.823,274.521 890.784,274.497 890.739,274.474C890.603,274.408 890.445,274.373 890.264,274.373C890.039,274.373 889.869,274.396 889.757,274.441L889.284,274.611C889.215,274.656 889.143,274.701 889.063,274.745C888.985,274.79 888.9,274.835 888.81,274.88L888.336,275.185C887.998,275.455 887.704,275.726 887.456,275.997L886.645,276.945L885.934,277.959C885.055,279.38 884.356,280.925 883.836,282.593C883.723,282.999 883.617,283.406 883.516,283.812C883.414,284.218 883.34,284.624 883.295,285.031C883.16,285.888 883.126,286.71 883.194,287.499L883.262,288.074L883.364,288.65C883.385,288.763 883.442,288.933 883.532,289.158C883.576,289.337 883.645,289.495 883.735,289.63C883.915,289.902 884.129,290.105 884.377,290.24C884.491,290.285 884.659,290.329 884.885,290.374L885.157,290.374C885.246,290.374 885.336,290.353 885.426,290.308C885.494,290.308 885.596,290.285 885.731,290.24L886.002,290.105C886.182,290.036 886.362,289.935 886.543,289.8C886.633,289.755 886.717,289.699 886.797,289.63C886.875,289.564 886.96,289.495 887.051,289.427L887.558,289.021C887.715,288.865 887.863,288.706 887.998,288.548C888.133,288.39 888.28,288.222 888.438,288.04L888.81,287.533C888.877,287.443 888.946,287.359 889.012,287.279C889.08,287.201 889.137,287.105 889.182,286.992C889.294,286.812 889.407,286.626 889.52,286.433C889.633,286.243 889.745,286.056 889.858,285.876C889.971,285.673 890.073,285.476 890.162,285.283C890.252,285.093 890.343,284.894 890.434,284.691L890.805,283.812C890.715,283.767 890.631,283.728 890.552,283.693C890.473,283.66 890.388,283.62 890.298,283.576C890.207,283.531 890.129,283.474 890.061,283.406L889.858,283.202C889.633,282.911 889.463,282.583 889.351,282.222C889.239,281.839 889.17,281.478 889.148,281.139C889.125,280.486 889.182,279.775 889.317,279.007L889.621,277.959C889.69,277.779 889.757,277.61 889.825,277.452C889.893,277.294 889.971,277.125 890.061,276.945C890.219,276.628 890.422,276.314 890.67,275.997L891.008,275.523L891.245,275.321L891.449,275.118L891.178,274.813ZM896.624,279.99C896.624,280.103 896.59,280.17 896.524,280.193L896.524,280.226L896.455,280.327C896.387,280.395 896.342,280.474 896.321,280.564L895.711,281.376L895.373,281.783C895.26,281.896 895.141,282.013 895.018,282.138C894.893,282.261 894.764,282.38 894.629,282.493C894.426,282.697 894.155,282.911 893.817,283.136C893.659,283.226 893.506,283.31 893.36,283.39C893.213,283.468 893.061,283.54 892.903,283.609C892.723,283.654 892.553,283.701 892.396,283.743C892.238,283.79 892.069,283.824 891.889,283.845C891.821,283.868 891.747,283.88 891.668,283.88L891.449,283.88L890.975,284.929L890.366,286.146L889.656,287.296C889.137,288.085 888.584,288.808 887.998,289.462C887.682,289.777 887.332,290.081 886.95,290.374C886.565,290.669 886.149,290.906 885.698,291.085C885.516,291.175 885.269,291.255 884.953,291.322C884.818,291.345 884.682,291.361 884.547,291.372C884.412,291.384 884.276,291.367 884.141,291.322C883.87,291.3 883.588,291.21 883.295,291.052C883.002,290.915 882.766,290.736 882.584,290.511C882.494,290.398 882.41,290.29 882.331,290.189C882.252,290.087 882.179,289.98 882.112,289.868C882.043,289.755 881.982,289.636 881.925,289.513C881.869,289.39 881.819,289.259 881.773,289.124C881.728,289.011 881.688,288.892 881.655,288.767C881.621,288.644 881.581,288.527 881.535,288.413L881.435,287.669C881.412,287.421 881.395,287.177 881.384,286.941C881.373,286.704 881.379,286.462 881.401,286.214C881.424,285.966 881.44,285.73 881.451,285.503C881.463,285.279 881.491,285.04 881.535,284.792C881.672,283.892 881.874,282.978 882.145,282.052C882.213,281.827 882.281,281.609 882.348,281.393C882.416,281.179 882.494,280.958 882.584,280.734L882.856,280.091L883.126,279.448C883.307,279.02 883.516,278.602 883.752,278.197C883.989,277.79 884.231,277.396 884.479,277.012C884.75,276.628 885.032,276.251 885.325,275.878C885.618,275.507 885.946,275.163 886.307,274.847C886.487,274.667 886.666,274.497 886.848,274.339C887.028,274.182 887.219,274.034 887.422,273.9C887.535,273.831 887.648,273.765 887.761,273.697C887.873,273.628 887.987,273.574 888.1,273.528C888.211,273.482 888.33,273.438 888.454,273.392C888.578,273.347 888.708,273.302 888.844,273.257C889.137,273.189 889.407,273.167 889.656,273.189C889.971,273.189 890.252,273.235 890.501,273.325C890.637,273.37 890.766,273.431 890.891,273.511C891.014,273.59 891.133,273.675 891.245,273.765C891.426,273.922 891.595,274.115 891.752,274.339L892.125,274.982C892.17,275.095 892.209,275.208 892.243,275.321C892.278,275.434 892.317,275.546 892.362,275.659C892.475,276.087 892.553,276.55 892.599,277.046C892.666,277.971 892.633,278.872 892.497,279.752C892.451,280.204 892.379,280.649 892.278,281.089C892.176,281.529 892.057,281.974 891.922,282.425C891.877,282.605 891.815,282.792 891.737,282.984C891.657,283.175 891.595,283.361 891.55,283.54L891.854,283.54C892.012,283.519 892.164,283.486 892.311,283.441C892.457,283.396 892.61,283.349 892.768,283.304C892.926,283.259 893.078,283.199 893.225,283.118C893.371,283.04 893.512,282.956 893.647,282.865C893.94,282.685 894.2,282.482 894.426,282.255L895.069,281.546C895.136,281.478 895.192,281.409 895.238,281.342C895.283,281.275 895.327,281.206 895.373,281.139C895.508,280.958 895.598,280.824 895.643,280.734C895.779,280.553 895.869,280.408 895.914,280.293L896.016,280.091L896.083,279.99C896.083,279.809 896.173,279.718 896.354,279.718C896.534,279.718 896.624,279.809 896.624,279.99" style="fill:#DFAC9E;fill-rule:nonzero;"/>
        </g>
        <g transform="matrix(4.16667,0,0,4.16667,0,0)">
            <path d="M892.633,290.613C892.723,290.252 892.813,289.902 892.903,289.564C892.993,289.224 893.095,288.877 893.207,288.515L893.817,286.486C894.042,285.787 894.268,285.097 894.492,284.422C894.719,283.744 894.955,283.08 895.203,282.425C895.451,281.75 895.699,281.072 895.947,280.395C896.196,279.718 896.467,279.054 896.76,278.4C897.053,277.746 897.358,277.097 897.673,276.455C897.988,275.812 898.326,275.164 898.688,274.509C898.801,274.283 898.97,274.142 899.196,274.086C899.42,274.03 899.647,274.058 899.872,274.171C900.098,274.283 900.238,274.453 900.295,274.677C900.352,274.904 900.322,275.131 900.21,275.355C900.21,275.378 900.199,275.388 900.176,275.388C899.455,276.584 898.778,277.802 898.147,279.042L897.233,280.936C897.414,280.621 897.588,280.316 897.758,280.023C897.927,279.73 898.102,279.437 898.281,279.144C898.485,278.804 898.694,278.472 898.908,278.146C899.122,277.819 899.342,277.498 899.568,277.181L900.278,276.234C900.391,276.076 900.509,275.925 900.633,275.777C900.757,275.631 900.887,275.478 901.022,275.321L901.428,274.881L901.867,274.474L902.342,274.069L902.916,273.765C903.007,273.719 903.119,273.675 903.255,273.629C903.391,273.584 903.503,273.562 903.594,273.562C903.684,273.54 903.819,273.528 903.999,273.528L904.405,273.629C904.586,273.719 904.721,273.81 904.811,273.9C904.924,274.013 905.014,274.136 905.082,274.272C905.149,274.385 905.199,274.509 905.235,274.644C905.268,274.779 905.307,274.904 905.352,275.016C905.375,275.131 905.391,275.242 905.403,275.355C905.414,275.468 905.42,275.581 905.42,275.693L905.42,276.031C905.42,276.166 905.408,276.268 905.387,276.336C905.387,276.742 905.33,277.148 905.217,277.553L905.082,278.163L904.912,278.738L904.574,279.854L904.168,280.97C904.123,281.061 904.101,281.139 904.101,281.207L904.744,280.125C905.014,279.674 905.295,279.223 905.59,278.771C905.883,278.32 906.186,277.87 906.502,277.418L907.485,276.133C907.664,275.929 907.838,275.726 908.008,275.523C908.178,275.321 908.352,275.118 908.533,274.915C908.735,274.734 908.944,274.554 909.158,274.374C909.373,274.193 909.604,274.024 909.852,273.866L910.258,273.664L910.731,273.528L911.002,273.528C911.047,273.506 911.092,273.5 911.137,273.511C911.182,273.523 911.227,273.528 911.274,273.528C911.319,273.55 911.375,273.568 911.442,273.578C911.51,273.591 911.567,273.619 911.612,273.664C911.746,273.754 911.836,273.832 911.881,273.9C911.926,273.945 911.961,273.99 911.983,274.035C912.006,274.081 912.028,274.126 912.051,274.171C912.119,274.283 912.153,274.374 912.153,274.441C912.221,274.644 912.254,274.825 912.254,274.982C912.276,275.073 912.287,275.23 912.287,275.456C912.266,275.547 912.254,275.693 912.254,275.896C912.209,276.189 912.158,276.47 912.102,276.742C912.045,277.012 911.971,277.283 911.881,277.553C911.723,278.072 911.555,278.58 911.375,279.076C911.194,279.572 911.014,280.08 910.832,280.598L909.682,283.576C909.481,284.072 909.287,284.562 909.108,285.047C908.926,285.533 908.758,286.011 908.6,286.486C908.51,286.666 908.432,286.914 908.363,287.23L908.16,287.939C908.115,288.052 908.086,288.166 908.076,288.277C908.065,288.39 908.047,288.504 908.026,288.617L907.957,288.955L907.957,289.259C907.957,289.373 907.951,289.468 907.94,289.547C907.928,289.627 907.924,289.699 907.924,289.767C907.924,289.857 907.934,289.924 907.957,289.968C907.957,290.037 907.979,290.093 908.026,290.138C908.047,290.183 908.076,290.218 908.11,290.24C908.143,290.263 908.182,290.297 908.229,290.342C908.274,290.342 908.301,290.347 908.313,290.359C908.324,290.371 908.352,290.375 908.397,290.375C908.42,290.398 908.442,290.41 908.465,290.41L908.498,290.41L908.533,290.443C908.668,290.443 908.779,290.431 908.871,290.41C908.916,290.41 908.967,290.398 909.024,290.375C909.078,290.353 909.141,290.33 909.209,290.308C909.412,290.218 909.615,290.082 909.819,289.902L910.393,289.394L910.934,288.785C911.002,288.674 911.074,288.572 911.154,288.48C911.233,288.39 911.319,288.289 911.408,288.177L911.848,287.5C911.916,287.386 911.988,287.279 912.069,287.177C912.147,287.076 912.221,286.97 912.287,286.857C912.559,286.451 912.84,286 913.133,285.504L913.912,284.15L914.69,282.73L915.401,281.342L916.076,279.888C916.166,279.73 916.303,279.685 916.483,279.753C916.662,279.843 916.707,279.967 916.617,280.125L916.617,280.158L915.908,281.58L915.129,283C915.016,283.25 914.893,283.48 914.758,283.693C914.621,283.908 914.487,284.14 914.352,284.388L913.539,285.775L912.694,287.127L912.221,287.771L911.746,288.414C911.567,288.638 911.385,288.853 911.205,289.056C911.024,289.259 910.844,289.451 910.664,289.631C910.483,289.834 910.291,290.025 910.088,290.207C909.885,290.41 909.672,290.59 909.446,290.748L909.039,290.951C908.86,291.041 908.713,291.097 908.6,291.119C908.555,291.119 908.533,291.131 908.533,291.154L908.363,291.154C908.295,291.176 908.205,291.187 908.092,291.187L907.838,291.187C907.76,291.187 907.664,291.176 907.551,291.154C907.461,291.107 907.371,291.068 907.281,291.035C907.19,291.002 907.088,290.951 906.977,290.883C906.819,290.748 906.684,290.59 906.571,290.41C906.502,290.32 906.451,290.228 906.418,290.138C906.385,290.049 906.344,289.959 906.299,289.869L906.197,289.361C906.197,289.271 906.192,289.185 906.182,289.107C906.17,289.027 906.176,288.955 906.197,288.886L906.197,288.414L906.334,287.533L906.738,285.91C907.055,284.918 907.428,283.892 907.856,282.832C908.059,282.336 908.268,281.845 908.483,281.359C908.696,280.875 908.916,280.395 909.141,279.922C909.254,279.674 909.362,279.431 909.463,279.195C909.565,278.958 909.672,278.716 909.783,278.467L910.36,277.012L910.629,276.302L910.867,275.592C910.957,275.343 911.014,275.131 911.035,274.949C911.059,274.881 911.071,274.791 911.071,274.677L911.071,274.441L911.035,274.408C910.946,274.363 910.867,274.34 910.799,274.34C910.551,274.34 910.336,274.385 910.156,274.474C909.885,274.588 909.672,274.712 909.514,274.847C909.401,274.915 909.299,274.988 909.209,275.067C909.119,275.146 909.018,275.23 908.904,275.321C908.725,275.502 908.549,275.687 908.381,275.879C908.211,276.072 908.035,276.258 907.856,276.437C907.676,276.64 907.506,276.849 907.348,277.063C907.19,277.278 907.043,277.498 906.908,277.722C906.299,278.557 905.737,279.448 905.217,280.395C904.946,280.847 904.682,281.303 904.422,281.765C904.162,282.228 903.908,282.697 903.661,283.17L902.916,284.556L902.409,285.572L902.342,285.674L902.071,286.418L901.665,287.467L901.259,288.515C901.192,288.695 901.123,288.871 901.057,289.039C900.988,289.209 900.932,289.384 900.887,289.564L900.752,290.105C900.706,290.195 900.684,290.273 900.684,290.342L900.651,290.476C900.627,290.5 900.616,290.533 900.616,290.578C900.571,290.826 900.447,291.019 900.244,291.154C900.041,291.289 899.816,291.334 899.568,291.289C899.342,291.244 899.162,291.131 899.027,290.951C898.891,290.771 898.834,290.568 898.858,290.342L898.891,290.308L898.891,290.138C898.891,290.117 898.897,290.093 898.908,290.072C898.919,290.049 898.925,290.025 898.925,290.004C898.925,289.914 898.947,289.8 898.992,289.666C899.015,289.552 899.031,289.451 899.043,289.361C899.055,289.271 899.082,289.17 899.127,289.056C899.173,288.877 899.223,288.683 899.279,288.48C899.336,288.277 899.399,288.086 899.466,287.906L899.872,286.789L900.278,285.707C900.549,284.986 900.83,284.269 901.123,283.558C901.416,282.847 901.71,282.133 902.004,281.41L902.444,280.328L902.85,279.279C902.916,279.099 902.985,278.918 903.052,278.738C903.119,278.557 903.176,278.377 903.221,278.197L903.594,277.148C903.639,276.967 903.684,276.793 903.729,276.623C903.774,276.455 903.819,276.279 903.863,276.099C903.908,276.009 903.932,275.929 903.932,275.862L903.999,275.592C904.022,275.502 904.039,275.422 904.05,275.355C904.061,275.287 904.067,275.209 904.067,275.118C904.067,274.937 904.055,274.813 904.033,274.746C904.033,274.677 904.022,274.634 903.999,274.611C903.999,274.588 903.988,274.566 903.965,274.543C903.899,274.474 903.785,274.441 903.627,274.441C903.56,274.42 903.492,274.42 903.424,274.441C903.334,274.441 903.255,274.453 903.188,274.474C903.007,274.521 902.861,274.588 902.748,274.677C902.612,274.724 902.454,274.825 902.274,274.982L901.867,275.321L901.462,275.726C900.988,276.246 900.515,276.843 900.041,277.519C899.838,277.836 899.635,278.158 899.432,278.484C899.229,278.811 899.037,279.144 898.858,279.482C898.654,279.799 898.457,280.125 898.266,280.463C898.073,280.801 897.887,281.139 897.707,281.478C897.346,282.154 896.99,282.838 896.641,283.525C896.291,284.213 895.959,284.906 895.643,285.605L894.696,287.703C894.358,288.425 894.053,289.134 893.782,289.834L893.748,289.902L893.445,290.816L893.445,290.849C893.355,291.097 893.174,291.187 892.903,291.119C892.79,291.074 892.705,291.008 892.649,290.916C892.594,290.826 892.588,290.724 892.633,290.613" style="fill:#DFAC9E;fill-rule:nonzero;"/>
        </g>
        <g transform="matrix(4.16667,0,0,4.16667,0,0)">
            <path d="M918.037,280.531C918.016,280.666 917.992,280.802 917.971,280.936C917.947,281.072 917.937,281.219 917.937,281.377L917.937,281.783C917.937,281.918 917.947,282.052 917.971,282.189C917.992,282.324 918.027,282.459 918.072,282.594C918.117,282.73 918.162,282.853 918.207,282.967C918.297,283.217 918.432,283.418 918.613,283.576C918.793,283.734 919.008,283.845 919.256,283.914C919.459,283.982 919.707,283.994 920,283.947C920.271,283.926 920.529,283.836 920.779,283.677C921.027,283.564 921.264,283.418 921.488,283.238C921.76,283.056 921.984,282.853 922.166,282.629C922.369,282.426 922.56,282.201 922.74,281.951C922.922,281.705 923.09,281.457 923.248,281.207C923.428,280.959 923.586,280.699 923.721,280.429C923.857,280.158 923.98,279.888 924.094,279.617L924.297,279.177L924.432,278.771C924.476,278.614 924.521,278.467 924.568,278.332C924.613,278.197 924.658,278.051 924.703,277.892C924.771,277.621 924.805,277.329 924.805,277.012C924.85,276.742 924.85,276.46 924.805,276.166C924.76,276.01 924.721,275.862 924.685,275.726C924.652,275.592 924.613,275.468 924.568,275.355C924.41,275.062 924.252,274.881 924.094,274.813C923.959,274.724 923.857,274.668 923.789,274.644C923.721,274.623 923.658,274.605 923.603,274.593C923.547,274.582 923.484,274.576 923.418,274.576L923.078,274.576C923.012,274.599 922.949,274.611 922.892,274.611C922.836,274.611 922.773,274.634 922.707,274.677C922.459,274.746 922.221,274.847 921.996,274.982C921.883,275.051 921.777,275.124 921.676,275.203C921.574,275.281 921.467,275.378 921.353,275.49L921.049,275.76L920.744,276.065L920.17,276.708C919.988,276.933 919.814,277.165 919.644,277.402C919.476,277.638 919.301,277.881 919.121,278.129C918.963,278.377 918.81,278.631 918.664,278.89C918.517,279.15 918.377,279.414 918.24,279.685L918.207,279.718L918.037,280.531ZM929.846,280.092C929.687,280.361 929.506,280.666 929.305,281.004C929.101,281.343 928.908,281.636 928.728,281.885L927.68,283.474C927.5,283.722 927.318,283.976 927.139,284.234C926.957,284.494 926.766,284.748 926.562,284.996C926.383,285.244 926.191,285.486 925.988,285.724C925.785,285.961 925.582,286.203 925.379,286.451C924.973,286.926 924.545,287.386 924.094,287.838C923.642,288.289 923.168,288.707 922.674,289.09C922.424,289.293 922.17,289.484 921.912,289.666C921.652,289.845 921.387,290.025 921.117,290.207C920.982,290.297 920.846,290.381 920.711,290.461C920.576,290.539 920.43,290.613 920.271,290.679L919.357,291.086C919.289,291.131 919.217,291.158 919.139,291.17C919.058,291.181 918.975,291.211 918.885,291.256L918.41,291.39L917.902,291.492C917.857,291.492 917.818,291.498 917.785,291.51C917.75,291.519 917.711,291.525 917.666,291.525L917.361,291.525L917.057,291.525C916.967,291.525 916.865,291.504 916.752,291.459C916.527,291.414 916.324,291.334 916.142,291.22C915.918,291.107 915.75,290.984 915.637,290.849C915.455,290.715 915.32,290.568 915.23,290.41C915.027,290.117 914.848,289.777 914.689,289.394C914.621,289.215 914.57,289.039 914.537,288.871C914.502,288.701 914.463,288.527 914.418,288.345C914.373,288.166 914.351,287.99 914.351,287.822C914.351,287.652 914.34,287.478 914.316,287.297L914.316,286.283C914.361,285.605 914.447,284.945 914.57,284.302C914.695,283.66 914.848,283.023 915.027,282.392C915.23,281.761 915.461,281.145 915.721,280.549C915.98,279.951 916.267,279.359 916.584,278.771C916.943,278.163 917.293,277.61 917.633,277.113C917.836,276.843 918.037,276.584 918.24,276.336C918.443,276.088 918.67,275.84 918.918,275.592C919.414,275.073 919.932,274.634 920.475,274.272C920.631,274.182 920.783,274.097 920.932,274.018C921.076,273.939 921.24,273.866 921.422,273.799C921.76,273.664 922.109,273.562 922.471,273.494C922.582,273.494 922.683,273.488 922.773,273.477C922.865,273.467 922.955,273.472 923.045,273.494C923.158,273.494 923.254,273.5 923.332,273.511C923.412,273.523 923.508,273.54 923.621,273.562L924.162,273.765C924.252,273.81 924.336,273.861 924.416,273.917C924.494,273.973 924.568,274.035 924.635,274.103C924.725,274.171 924.799,274.244 924.855,274.323C924.91,274.402 924.963,274.474 925.008,274.543C925.053,274.634 925.098,274.718 925.142,274.797C925.187,274.876 925.232,274.961 925.277,275.051C925.346,275.23 925.391,275.4 925.412,275.558C925.435,275.716 925.459,275.885 925.48,276.065C925.504,276.403 925.504,276.742 925.48,277.08C925.459,277.238 925.441,277.396 925.43,277.553C925.418,277.713 925.391,277.87 925.346,278.027C925.301,278.209 925.256,278.371 925.211,278.517C925.164,278.665 925.119,278.817 925.074,278.974L924.906,279.448L924.703,279.888C924.658,280.023 924.601,280.164 924.533,280.311C924.467,280.458 924.387,280.598 924.297,280.734C924.162,281.072 924.016,281.355 923.857,281.58C923.676,281.849 923.496,282.115 923.316,282.375C923.135,282.635 922.932,282.888 922.707,283.136C922.594,283.271 922.475,283.396 922.351,283.508C922.226,283.621 922.109,283.734 921.996,283.845C921.861,283.959 921.726,284.06 921.59,284.15C921.455,284.24 921.308,284.32 921.15,284.388C920.812,284.568 920.484,284.691 920.17,284.76C919.988,284.804 919.803,284.828 919.611,284.828C919.42,284.828 919.234,284.804 919.053,284.76C918.646,284.691 918.308,284.535 918.037,284.287C917.744,284.015 917.508,283.722 917.328,283.406C917.193,283.181 917.09,282.922 917.023,282.629L916.922,282.967C916.808,283.26 916.719,283.547 916.65,283.83C916.584,284.111 916.516,284.4 916.449,284.691C916.402,284.963 916.357,285.244 916.312,285.539C916.267,285.832 916.223,286.113 916.178,286.383C916.133,286.97 916.133,287.533 916.178,288.074C916.199,288.301 916.256,288.56 916.346,288.853C916.369,288.988 916.402,289.107 916.449,289.209C916.492,289.31 916.537,289.418 916.584,289.529L916.719,289.834L916.922,290.037C917.057,290.219 917.238,290.32 917.463,290.342L917.531,290.375L917.633,290.375C917.678,290.375 917.711,290.381 917.734,290.392C917.756,290.404 917.789,290.41 917.836,290.41L918.494,290.41C918.574,290.41 918.646,290.398 918.715,290.375C918.828,290.375 918.975,290.353 919.154,290.308C919.289,290.285 919.43,290.252 919.578,290.207C919.725,290.162 919.865,290.117 920,290.072C920.316,289.959 920.586,289.834 920.812,289.699C921.33,289.451 921.85,289.113 922.369,288.683C922.797,288.345 923.248,287.939 923.721,287.467C923.947,287.24 924.162,287.015 924.365,286.789C924.568,286.564 924.771,286.338 924.973,286.113C925.379,285.638 925.769,285.16 926.141,284.676C926.514,284.191 926.879,283.689 927.24,283.17L928.289,281.613L929.404,279.82C929.496,279.663 929.607,279.629 929.744,279.718C929.9,279.787 929.935,279.911 929.846,280.092" style="fill:#DFAC9E;fill-rule:nonzero;"/>
        </g>
        <g transform="matrix(4.16667,0,0,4.16667,0,0)">
            <path d="M925.785,290.613L926.359,288.515C926.473,288.177 926.58,287.838 926.681,287.5C926.783,287.162 926.89,286.824 927.004,286.486C927.207,285.787 927.42,285.097 927.646,284.422C927.871,283.744 928.107,283.08 928.355,282.425C928.605,281.75 928.859,281.072 929.117,280.395C929.377,279.718 929.652,279.054 929.945,278.4C930.24,277.746 930.539,277.097 930.844,276.455C931.146,275.812 931.48,275.164 931.84,274.509C931.953,274.283 932.129,274.142 932.365,274.086C932.601,274.03 932.834,274.058 933.058,274.171C933.262,274.283 933.396,274.453 933.465,274.677C933.531,274.904 933.51,275.131 933.396,275.355L933.363,275.388C932.619,276.584 931.941,277.802 931.334,279.042C931.017,279.674 930.713,280.311 930.42,280.954C930.127,281.597 929.846,282.246 929.574,282.898C929.392,283.349 929.213,283.791 929.033,284.218C928.853,284.646 928.672,285.088 928.492,285.539L929.303,284.049C929.596,283.531 929.885,283.029 930.166,282.545C930.447,282.058 930.746,281.58 931.062,281.105C931.672,280.136 932.314,279.189 932.99,278.263C933.172,278.039 933.346,277.813 933.515,277.588C933.685,277.363 933.859,277.136 934.039,276.911L935.156,275.625C935.359,275.4 935.562,275.191 935.765,275C935.969,274.808 936.193,274.623 936.441,274.441C936.668,274.261 936.928,274.092 937.221,273.933C937.31,273.866 937.445,273.787 937.625,273.697L938.099,273.562L938.336,273.494L938.539,273.494C938.562,273.494 938.572,273.488 938.572,273.477C938.572,273.467 938.584,273.461 938.607,273.461C938.742,273.461 938.844,273.472 938.912,273.494C938.978,273.494 939.08,273.517 939.215,273.562C939.262,273.607 939.318,273.64 939.385,273.664C939.453,273.685 939.51,273.719 939.555,273.765L939.791,274.035C939.859,274.148 939.91,274.25 939.943,274.34C939.976,274.43 940.015,274.531 940.06,274.644C940.107,274.825 940.129,275 940.129,275.169L940.129,275.693C940.107,275.851 940.084,276.004 940.06,276.15C940.039,276.297 940.006,276.449 939.961,276.606C939.892,276.945 939.812,277.238 939.723,277.486L939.453,278.299C939.271,278.84 939.058,279.381 938.81,279.922C938.607,280.463 938.398,280.994 938.183,281.511C937.969,282.031 937.75,282.55 937.523,283.068C937.299,283.588 937.078,284.105 936.865,284.625C936.65,285.144 936.453,285.662 936.273,286.181C936.16,286.451 936.07,286.699 936.002,286.925L935.765,287.703C935.721,287.816 935.691,287.935 935.68,288.058C935.668,288.183 935.652,288.3 935.629,288.414C935.584,288.549 935.562,288.674 935.562,288.785L935.562,289.125C935.562,289.236 935.568,289.332 935.58,289.412C935.59,289.49 935.596,289.564 935.596,289.631L935.664,289.8C935.664,289.869 935.697,289.935 935.765,290.004L935.969,290.172C936.058,290.218 936.115,290.24 936.137,290.24C936.181,290.285 936.238,290.308 936.306,290.308C936.328,290.33 936.351,290.342 936.373,290.342C936.396,290.342 936.43,290.353 936.476,290.375L936.644,290.375C936.803,290.375 936.916,290.365 936.982,290.342C937.209,290.32 937.457,290.228 937.726,290.072C937.953,289.935 938.178,289.777 938.404,289.597L939.012,289.021L939.588,288.414C939.971,287.986 940.332,287.556 940.67,287.127C941.031,286.654 941.359,286.191 941.652,285.74C941.808,285.515 941.967,285.283 942.125,285.047C942.283,284.81 942.43,284.568 942.564,284.32C942.723,284.072 942.875,283.836 943.021,283.609C943.168,283.384 943.308,283.148 943.445,282.898L944.291,281.41L945.068,279.922L945.068,279.888C945.158,279.73 945.271,279.697 945.406,279.787C945.564,279.877 945.609,279.99 945.543,280.125L945.137,280.902C945.068,281.016 944.994,281.134 944.916,281.259C944.838,281.383 944.764,281.511 944.697,281.646L943.849,283.101L942.937,284.556C942.779,284.804 942.627,285.041 942.48,285.267C942.334,285.492 942.17,285.73 941.99,285.978C941.697,286.429 941.369,286.89 941.01,287.365C940.828,287.613 940.648,287.843 940.467,288.058C940.287,288.273 940.107,288.492 939.926,288.718C939.723,288.943 939.525,289.158 939.334,289.361C939.142,289.564 938.922,289.756 938.674,289.935C938.562,290.049 938.449,290.144 938.336,290.222C938.223,290.302 938.111,290.386 937.998,290.476C937.726,290.658 937.469,290.816 937.221,290.951L936.746,291.154C936.701,291.154 936.656,291.164 936.611,291.187L936.476,291.187L936.238,291.256L936.002,291.256C935.957,291.256 935.912,291.259 935.867,291.271C935.82,291.283 935.777,291.277 935.73,291.256C935.551,291.256 935.359,291.22 935.156,291.154C935.043,291.131 934.941,291.092 934.851,291.035C934.762,290.978 934.67,290.916 934.582,290.849C934.424,290.736 934.265,290.568 934.107,290.342C934.062,290.252 934.023,290.162 933.988,290.072C933.955,289.98 933.916,289.881 933.871,289.767L933.769,289.224L933.769,288.701C933.769,288.531 933.781,288.357 933.803,288.177C933.826,288.019 933.848,287.867 933.871,287.72C933.892,287.574 933.926,287.422 933.973,287.263L934.176,286.383L934.445,285.539C934.627,284.974 934.83,284.422 935.055,283.881C935.279,283.34 935.517,282.81 935.765,282.291L937.185,279.211L937.896,277.689L938.201,276.945L938.471,276.166L938.709,275.456L938.775,275.118C938.799,275.05 938.81,274.949 938.81,274.813L938.81,274.611C938.81,274.566 938.799,274.531 938.775,274.509C938.709,274.441 938.64,274.408 938.572,274.408L938.506,274.374L938.234,274.374C938.168,274.374 938.105,274.379 938.049,274.39C937.992,274.402 937.93,274.408 937.863,274.408L937.523,274.543C937.299,274.634 937.062,274.758 936.814,274.915L936.137,275.422L935.529,275.964C935.144,276.347 934.773,276.765 934.412,277.216C934.051,277.667 933.701,278.117 933.363,278.568C933.047,279.02 932.738,279.482 932.433,279.955C932.129,280.429 931.818,280.902 931.502,281.377L929.777,284.287C929.506,284.804 929.236,285.306 928.965,285.791C928.695,286.277 928.435,286.779 928.187,287.297L927.408,288.82L927.004,289.699C926.959,289.881 926.902,290.066 926.834,290.258C926.765,290.449 926.699,290.634 926.631,290.816L926.631,290.849C926.496,291.097 926.316,291.187 926.09,291.119C925.976,291.074 925.892,291.008 925.836,290.916C925.779,290.826 925.764,290.724 925.785,290.613" style="fill:#DFAC9E;fill-rule:nonzero;"/>
        </g>
        <g transform="matrix(4.16667,0,0,4.16667,0,0)">
            <path d="M954.981,263.818L958.229,259.014L959.751,256.545L960.461,255.293L961.071,254.007L961.34,253.332L961.544,252.688C961.612,252.463 961.645,252.248 961.645,252.046C961.669,251.82 961.645,251.629 961.579,251.47C961.554,251.336 961.465,251.234 961.307,251.166C961.172,251.098 960.991,251.064 960.766,251.064L960.631,251.064C960.607,251.064 960.59,251.07 960.581,251.082C960.569,251.093 960.551,251.098 960.53,251.098L960.495,251.098C960.45,251.098 960.36,251.121 960.225,251.166C960.044,251.234 959.876,251.336 959.717,251.47C959.538,251.584 959.374,251.713 959.227,251.859C959.081,252.006 958.928,252.17 958.77,252.349L957.924,253.432L957.147,254.583L956.367,255.767C956.12,256.172 955.883,256.585 955.657,257.002C955.432,257.42 955.206,257.841 954.981,258.27C954.756,258.699 954.535,259.122 954.321,259.539C954.107,259.957 953.899,260.379 953.696,260.807C953.311,261.642 952.934,262.47 952.563,263.295C952.189,264.117 951.835,264.947 951.497,265.781L952.241,265.476L953.12,265.07C953.367,264.98 953.606,264.89 953.831,264.799C954.055,264.71 954.293,264.608 954.542,264.496L954.981,263.818ZM951.732,268.656L952.985,266.761C952.602,266.943 952.229,267.111 951.87,267.269C951.508,267.427 951.135,267.586 950.752,267.743C950.278,269.006 949.838,270.257 949.432,271.498C949.321,271.814 949.213,272.124 949.112,272.428C949.01,272.732 948.903,273.043 948.79,273.359C949.264,272.57 949.742,271.785 950.229,271.007C950.713,270.229 951.215,269.446 951.732,268.656M970.069,269.739L970.34,268.826C970.362,268.736 970.374,268.656 970.374,268.589C970.374,268.521 970.397,268.442 970.442,268.351C970.442,268.284 970.448,268.211 970.46,268.132C970.468,268.052 970.475,267.98 970.475,267.912C970.544,267.281 970.51,266.672 970.374,266.086C970.284,265.814 970.17,265.544 970.035,265.273C969.901,265.003 969.731,264.755 969.528,264.529C969.415,264.416 969.309,264.314 969.208,264.224C969.106,264.134 968.987,264.045 968.852,263.954C968.626,263.797 968.366,263.661 968.073,263.548C967.938,263.503 967.797,263.452 967.651,263.396C967.504,263.339 967.352,263.289 967.194,263.244C967.035,263.199 966.883,263.165 966.737,263.142C966.59,263.12 966.438,263.097 966.28,263.074C965.965,263.029 965.655,263.002 965.35,262.99C965.045,262.978 964.735,262.984 964.42,263.006C963.788,263.029 963.169,263.097 962.559,263.21L962.12,263.277L961.883,263.345L961.645,263.345L960.732,263.615C960.439,263.706 960.141,263.797 959.836,263.886C959.532,263.976 959.232,264.078 958.939,264.191L958.059,264.529L957.213,264.901C956.696,265.127 956.182,265.353 955.674,265.578C955.167,265.803 954.655,266.029 954.135,266.254C953.819,266.706 953.514,267.168 953.221,267.641C952.928,268.115 952.624,268.578 952.309,269.029C951.768,269.84 951.242,270.652 950.735,271.464C950.229,272.276 949.715,273.099 949.196,273.933L947.944,276.132C947.899,276.268 947.86,276.41 947.827,276.556C947.792,276.703 947.752,276.843 947.708,276.978C947.46,277.925 947.229,278.856 947.014,279.769C946.799,280.683 946.602,281.613 946.422,282.56C946.333,283.013 946.258,283.474 946.202,283.947C946.145,284.422 946.093,284.884 946.049,285.336L945.982,286.722L945.982,287.398C945.982,287.625 945.993,287.838 946.016,288.041C946.016,288.154 946.022,288.261 946.034,288.363C946.043,288.464 946.061,288.572 946.085,288.683C946.106,288.797 946.124,288.898 946.135,288.988C946.145,289.078 946.174,289.17 946.218,289.259C946.288,289.484 946.366,289.654 946.456,289.767C946.545,289.902 946.68,290.004 946.862,290.072C946.907,290.117 946.946,290.138 946.981,290.138C947.014,290.138 947.053,290.15 947.098,290.172C947.122,290.172 947.143,290.177 947.167,290.189C947.188,290.201 947.211,290.207 947.235,290.207L947.37,290.207C947.46,290.228 947.549,290.228 947.639,290.207C947.729,290.183 947.831,290.15 947.944,290.105C948.147,290.037 948.338,289.935 948.52,289.8C948.61,289.732 948.7,289.666 948.79,289.597C948.879,289.529 948.971,289.451 949.061,289.361C949.354,289.089 949.67,288.752 950.008,288.345L950.886,287.195C951.022,286.992 951.159,286.789 951.293,286.586C951.428,286.382 951.553,286.181 951.667,285.978C951.801,285.797 951.936,285.601 952.071,285.384C952.208,285.172 952.331,284.963 952.444,284.759C952.692,284.353 952.934,283.943 953.17,283.525C953.409,283.107 953.651,282.685 953.899,282.256L954.575,280.97L955.217,279.685C955.307,279.527 955.444,279.482 955.624,279.549C955.782,279.64 955.827,279.775 955.758,279.955L955.116,281.275C955.002,281.478 954.891,281.687 954.778,281.902C954.665,282.115 954.553,282.336 954.439,282.56C954.192,282.99 953.95,283.412 953.713,283.83C953.475,284.248 953.232,284.67 952.985,285.097L952.208,286.349C952.094,286.552 951.965,286.756 951.819,286.959C951.67,287.162 951.53,287.353 951.395,287.533L950.481,288.718C950.167,289.101 949.827,289.474 949.467,289.834L948.926,290.341C948.813,290.431 948.7,290.511 948.586,290.578C948.473,290.646 948.362,290.714 948.249,290.781C947.979,290.939 947.708,291.029 947.436,291.052L947.37,291.086L946.963,291.086C946.895,291.062 946.823,291.052 946.743,291.052C946.665,291.052 946.59,291.029 946.524,290.984C946.231,290.916 945.948,290.771 945.678,290.545C945.452,290.365 945.249,290.138 945.069,289.869C944.91,289.597 944.788,289.338 944.696,289.089C944.653,288.978 944.606,288.853 944.561,288.718C944.516,288.582 944.482,288.447 944.46,288.312C944.415,288.177 944.381,288.047 944.357,287.923C944.336,287.798 944.313,287.67 944.292,287.533L944.189,286.756C944.167,286.507 944.16,286.254 944.172,285.994C944.184,285.736 944.189,285.482 944.189,285.234C944.235,284.714 944.28,284.213 944.325,283.728C944.37,283.244 944.438,282.754 944.528,282.256C944.593,281.761 944.674,281.269 944.764,280.785C944.854,280.299 944.956,279.809 945.069,279.312C945.182,278.839 945.293,278.365 945.407,277.892C945.52,277.418 945.633,276.945 945.745,276.47C946.264,274.531 946.838,272.648 947.471,270.822C947.585,270.483 947.702,270.14 947.827,269.79C947.95,269.44 948.081,269.095 948.215,268.757C947.922,268.871 947.639,268.972 947.37,269.062C947.098,269.152 946.817,269.243 946.524,269.333C945.239,269.716 943.963,270.021 942.7,270.246C942.385,270.314 942.063,270.365 941.737,270.398C941.41,270.432 941.088,270.472 940.772,270.517C940.117,270.562 939.465,270.562 938.809,270.517C938.629,270.495 938.461,270.483 938.303,270.483C938.145,270.483 937.977,270.461 937.795,270.416C937.636,270.393 937.479,270.365 937.321,270.331C937.165,270.297 936.995,270.257 936.814,270.213C936.454,270.123 936.149,270.021 935.901,269.908L934.954,269.536C934.66,269.379 934.379,269.203 934.107,269.011C933.836,268.82 933.579,268.623 933.329,268.42C933.194,268.306 933.071,268.189 932.958,268.064C932.843,267.941 932.732,267.822 932.62,267.709C932.506,267.574 932.405,267.444 932.314,267.32C932.225,267.197 932.124,267.066 932.01,266.931C931.92,266.773 931.831,266.621 931.739,266.474C931.651,266.328 931.583,266.175 931.538,266.017C931.379,265.724 931.266,265.386 931.198,265.003C931.198,264.89 931.176,264.72 931.131,264.496C931.153,264.382 931.159,264.287 931.147,264.208C931.136,264.129 931.131,264.045 931.131,263.954C931.176,263.773 931.21,263.588 931.232,263.396C931.254,263.205 931.299,263.018 931.367,262.838C931.616,262.116 932.01,261.507 932.551,261.01C933.139,260.492 933.758,260.12 934.413,259.894C935.067,259.624 935.766,259.522 936.51,259.589C937.21,259.613 937.885,259.781 938.54,260.097C938.721,260.165 938.877,260.238 939.011,260.317C939.149,260.396 939.284,260.48 939.418,260.57C939.713,260.773 939.973,261 940.198,261.248L940.569,261.552C940.616,261.642 940.667,261.716 940.721,261.771C940.778,261.828 940.829,261.89 940.874,261.958C940.918,262.004 940.968,262.059 941.026,262.127C941.083,262.195 941.133,262.252 941.178,262.297C941.223,262.386 941.274,262.461 941.331,262.515C941.386,262.572 941.45,262.634 941.516,262.702C941.561,262.769 941.551,262.838 941.482,262.905C941.393,262.996 941.313,262.996 941.247,262.905L941.247,262.871C941.202,262.781 941.157,262.708 941.11,262.651C941.064,262.595 941.022,262.533 940.975,262.464C940.93,262.398 940.885,262.336 940.84,262.279C940.795,262.223 940.751,262.172 940.706,262.127C940.592,261.969 940.467,261.856 940.333,261.789L939.995,261.484C939.43,261.146 938.867,260.909 938.303,260.773C937.739,260.638 937.165,260.627 936.577,260.74C935.991,260.853 935.45,261.01 934.954,261.214C934.682,261.326 934.43,261.457 934.192,261.603C933.956,261.75 933.735,261.923 933.532,262.127C933.329,262.308 933.131,262.494 932.939,262.685C932.749,262.877 932.585,263.097 932.45,263.345C932.381,263.459 932.321,263.582 932.264,263.716C932.208,263.852 932.157,263.988 932.112,264.123C932.09,264.168 932.067,264.224 932.043,264.293C932.022,264.359 932.01,264.427 932.01,264.496C931.989,264.562 931.977,264.636 931.977,264.714L931.977,264.935C931.977,265.228 932.01,265.521 932.079,265.814C932.124,265.972 932.174,266.119 932.231,266.254C932.288,266.389 932.36,266.513 932.45,266.627C932.585,266.897 932.766,267.146 932.991,267.371C933.104,267.484 933.217,267.59 933.329,267.692C933.444,267.794 933.555,267.9 933.668,268.013C934.141,268.42 934.649,268.757 935.189,269.029C935.348,269.095 935.501,269.158 935.647,269.214C935.793,269.271 935.924,269.322 936.035,269.367C936.194,269.412 936.346,269.451 936.493,269.485C936.639,269.519 936.792,269.558 936.95,269.603C937.107,269.649 937.26,269.677 937.407,269.688C937.553,269.7 937.717,269.716 937.897,269.739C938.055,269.761 938.208,269.773 938.354,269.773L938.809,269.773C939.126,269.773 939.436,269.756 939.741,269.722C940.045,269.688 940.356,269.649 940.67,269.603C940.987,269.558 941.292,269.507 941.585,269.451C941.877,269.395 942.182,269.322 942.499,269.231C943.106,269.074 943.71,268.893 944.307,268.69C944.905,268.487 945.497,268.273 946.085,268.047C946.557,267.867 947.032,267.681 947.504,267.489C947.979,267.298 948.452,267.099 948.926,266.897C949.038,266.649 949.145,266.395 949.247,266.136C949.348,265.877 949.456,265.611 949.569,265.341C950.335,263.492 951.147,261.71 952.004,259.996C952.456,259.116 952.917,258.248 953.391,257.39C953.864,256.534 954.372,255.688 954.913,254.853C955.049,254.65 955.184,254.442 955.319,254.228C955.456,254.013 955.602,253.804 955.758,253.601C955.895,253.398 956.042,253.201 956.2,253.009C956.356,252.818 956.526,252.632 956.706,252.451L957.213,251.877L957.79,251.369L958.432,250.861L959.143,250.455C959.367,250.32 959.636,250.218 959.954,250.151C960.022,250.151 960.093,250.146 960.174,250.134C960.252,250.123 960.327,250.117 960.393,250.117L960.631,250.117C960.721,250.117 960.788,250.129 960.835,250.151C960.991,250.151 961.139,250.185 961.274,250.253C961.409,250.298 961.554,250.354 961.713,250.422C961.893,250.556 962.018,250.67 962.086,250.759C962.221,250.941 962.299,251.098 962.323,251.234C962.367,251.414 962.389,251.56 962.389,251.673C962.413,251.741 962.419,251.808 962.407,251.877C962.395,251.944 962.389,252.011 962.389,252.08C962.367,252.238 962.343,252.379 962.323,252.502C962.299,252.627 962.266,252.745 962.221,252.857C962.153,253.105 962.075,253.347 961.985,253.585C961.893,253.822 961.792,254.052 961.679,254.279C961.454,254.73 961.223,255.164 960.987,255.581C960.749,255.999 960.506,256.422 960.258,256.849L958.737,259.319C958.217,260.13 957.7,260.931 957.18,261.72C956.66,262.511 956.143,263.3 955.624,264.089L956.741,263.683C957.282,263.459 957.903,263.255 958.6,263.074C959.188,262.871 959.819,262.702 960.495,262.566L961.477,262.431L961.579,262.398L961.713,262.364L961.95,262.364C962.04,262.364 962.126,262.359 962.204,262.347C962.282,262.336 962.356,262.33 962.424,262.33C962.761,262.308 963.093,262.291 963.422,262.279C963.749,262.268 964.071,262.262 964.385,262.262C964.747,262.262 965.085,262.274 965.401,262.297C965.717,262.318 966.044,262.353 966.381,262.398C966.563,262.443 966.725,262.482 966.874,262.515C967.018,262.55 967.182,262.589 967.364,262.634C967.657,262.702 967.96,262.815 968.276,262.972C968.614,263.108 968.919,263.277 969.189,263.48C969.461,263.683 969.718,263.909 969.967,264.157C970.081,264.269 970.188,264.399 970.29,264.546C970.391,264.693 970.475,264.845 970.544,265.003C970.633,265.161 970.706,265.318 970.764,265.476C970.819,265.634 970.87,265.793 970.917,265.95C971.004,266.289 971.057,266.627 971.067,266.964C971.079,267.302 971.073,267.631 971.051,267.946C971.051,268.037 971.045,268.121 971.034,268.199C971.022,268.279 971.016,268.363 971.016,268.453L970.917,268.961C970.87,269.119 970.831,269.277 970.797,269.434C970.764,269.592 970.723,269.75 970.678,269.908C970.657,270.111 970.532,270.19 970.307,270.144C970.215,270.099 970.143,270.038 970.086,269.959C970.03,269.881 970.024,269.806 970.069,269.739" style="fill:#DFAC9E;fill-rule:nonzero;"/>
        </g>
        <g transform="matrix(4.16667,0,0,4.16667,0,0)">
            <path d="M957.213,277.79L955.793,279.954C955.297,280.745 954.858,281.501 954.473,282.222C954.067,282.989 953.729,283.778 953.459,284.591C953.391,284.792 953.328,284.995 953.272,285.198C953.217,285.401 953.166,285.604 953.119,285.808C953.074,286.034 953.041,286.247 953.018,286.45C952.996,286.653 952.984,286.868 952.984,287.093L952.984,287.397C953.008,287.466 953.018,287.567 953.018,287.702L953.188,288.276C953.322,288.638 953.537,288.966 953.83,289.259C954.418,289.8 955.115,290.093 955.928,290.138C956.287,290.161 956.649,290.104 957.01,289.968C957.393,289.811 957.688,289.62 957.891,289.394C958.026,289.28 958.143,289.151 958.244,289.005C958.346,288.858 958.442,288.706 958.533,288.548C958.578,288.458 958.617,288.374 958.651,288.294C958.686,288.216 958.725,288.13 958.77,288.04L958.94,287.466C959.027,287.081 959.08,286.692 959.09,286.298C959.102,285.903 959.086,285.503 959.039,285.097C959.018,284.917 958.994,284.726 958.973,284.522C958.949,284.319 958.916,284.116 958.871,283.913L958.567,282.661L958.432,282.052L958.262,281.409C958.193,281.206 958.133,280.998 958.076,280.784C958.02,280.569 957.969,280.36 957.924,280.157C957.811,279.707 957.709,279.267 957.619,278.839C957.529,278.411 957.461,277.971 957.416,277.519L957.213,277.79ZM961.645,273.223C961.623,273.155 961.567,273.076 961.477,272.985L961.375,272.918C961.352,272.918 961.334,272.913 961.324,272.901C961.313,272.89 961.295,272.884 961.274,272.884C961.25,272.884 961.233,272.88 961.223,272.867C961.211,272.856 961.182,272.851 961.137,272.851L960.834,272.851C960.652,272.895 960.506,272.94 960.393,272.985C960.258,273.054 960.145,273.133 960.055,273.223C960.01,273.245 959.981,273.269 959.971,273.29C959.959,273.313 959.942,273.336 959.92,273.358C959.92,273.381 959.914,273.392 959.902,273.392C959.891,273.392 959.885,273.403 959.885,273.426L959.818,273.493L959.785,273.561C959.693,273.651 959.615,273.786 959.547,273.967C959.457,274.147 959.401,274.294 959.379,274.407C959.311,274.587 959.277,274.757 959.277,274.914C959.231,275.095 959.209,275.28 959.209,275.472L959.209,276.064C959.209,276.245 959.221,276.436 959.242,276.64C959.266,276.843 959.287,277.046 959.311,277.249C959.356,277.654 959.418,278.065 959.496,278.483C959.576,278.901 959.66,279.311 959.75,279.718L960.156,281.645L960.293,282.29L960.494,283.644C960.539,283.868 960.574,284.093 960.596,284.319C960.619,284.544 960.631,284.782 960.631,285.03L960.631,285.739C960.631,285.966 960.619,286.202 960.596,286.45L960.529,286.856L960.697,286.653L961.543,285.538L962.424,284.454C962.693,284.071 962.965,283.692 963.234,283.321C963.506,282.95 963.764,282.571 964.014,282.188C964.262,281.806 964.486,281.409 964.69,281.003C964.893,280.598 965.084,280.181 965.266,279.752C965.356,279.526 965.502,279.47 965.705,279.583C965.908,279.673 965.963,279.809 965.875,279.989L965.875,280.022C965.76,280.226 965.643,280.435 965.52,280.648C965.395,280.863 965.276,281.061 965.164,281.24C965.051,281.444 964.932,281.645 964.809,281.849C964.684,282.052 964.555,282.255 964.418,282.458L963.608,283.608L962.795,284.726L962.356,285.267L961.916,285.841C961.645,286.181 961.375,286.552 961.104,286.958C960.901,287.229 960.715,287.505 960.545,287.786C960.377,288.069 960.201,288.356 960.022,288.649L959.717,289.224C959.582,289.427 959.43,289.626 959.26,289.817C959.09,290.009 958.904,290.183 958.701,290.341C958.274,290.702 957.811,290.927 957.315,291.019C956.795,291.153 956.301,291.186 955.826,291.118C955.33,291.052 954.867,290.894 954.44,290.645C954.033,290.421 953.66,290.104 953.322,289.698C953.008,289.292 952.781,288.876 952.647,288.446C952.602,288.333 952.572,288.222 952.563,288.108C952.551,287.995 952.533,287.882 952.51,287.77L952.51,287.06C952.533,286.608 952.59,286.163 952.68,285.724C952.77,285.282 952.883,284.849 953.018,284.421C953.289,283.587 953.627,282.774 954.033,281.985C954.215,281.603 954.412,281.212 954.625,280.817C954.84,280.423 955.061,280.034 955.285,279.65L956.57,277.384L957.315,275.963C957.315,275.58 957.371,275.13 957.484,274.61C957.506,274.385 957.574,274.125 957.688,273.831L957.822,273.46L958.026,273.121C958.115,273.009 958.199,272.895 958.279,272.782C958.358,272.671 958.453,272.558 958.567,272.444L958.635,272.377L958.736,272.275L958.77,272.275L958.77,272.241L958.803,272.241L958.871,272.174C958.961,272.106 959.096,272.027 959.277,271.936C959.84,271.644 960.428,271.61 961.035,271.835C961.217,271.926 961.34,272.005 961.408,272.072L961.578,272.208L961.746,272.411L961.848,272.614C961.869,272.659 961.881,272.727 961.881,272.817C961.928,272.975 961.916,273.11 961.848,273.223C961.803,273.313 961.758,273.336 961.713,273.29C961.668,273.29 961.645,273.269 961.645,273.223" style="fill:#DFAC9E;fill-rule:nonzero;"/>
        </g>
    </g>
</svg>
